<?xml version="1.0" encoding="UTF-8"?><svg id="Layer_2" xmlns="http://www.w3.org/2000/svg" viewBox="0 0 243.75 356"><defs><style>.cls-1{fill:#89c5ad;}.cls-1,.cls-2,.cls-3,.cls-4,.cls-5,.cls-6,.cls-7,.cls-8,.cls-9,.cls-10,.cls-11,.cls-12,.cls-13,.cls-14,.cls-15,.cls-16,.cls-17,.cls-18,.cls-19,.cls-20,.cls-21,.cls-22,.cls-23,.cls-24,.cls-25,.cls-26,.cls-27,.cls-28,.cls-29,.cls-30,.cls-31,.cls-32,.cls-33,.cls-34,.cls-35,.cls-36,.cls-37,.cls-38,.cls-39,.cls-40,.cls-41,.cls-42,.cls-43,.cls-44,.cls-45,.cls-46,.cls-47,.cls-48,.cls-49,.cls-50,.cls-51,.cls-52,.cls-53,.cls-54,.cls-55,.cls-56,.cls-57,.cls-58,.cls-59,.cls-60,.cls-61,.cls-62,.cls-63,.cls-64,.cls-65,.cls-66,.cls-67,.cls-68,.cls-69,.cls-70,.cls-71,.cls-72,.cls-73,.cls-74,.cls-75,.cls-76,.cls-77,.cls-78,.cls-79,.cls-80,.cls-81,.cls-82,.cls-83,.cls-84,.cls-85,.cls-86,.cls-87,.cls-88,.cls-89,.cls-90{stroke-width:0px;}.cls-2{fill:#fbcf70;}.cls-3{fill:#e2a378;}.cls-4{fill:#ceebe0;}.cls-5{fill:#fbce72;}.cls-6{fill:#3e625b;}.cls-7{fill:#f8e1a8;}.cls-8{fill:#788689;}.cls-9{fill:#11262a;}.cls-10{fill:#536468;}.cls-11{fill:#a1aaac;}.cls-12{fill:#485b5f;}.cls-13{fill:#f9dd98;}.cls-14{fill:#88c3a9;}.cls-15{fill:#f2f2f2;}.cls-16{fill:#87c4ac;}.cls-17{fill:#11272b;}.cls-18{fill:#bd2c1a;}.cls-19{fill:#89c4ac;}.cls-20{fill:#f9dc96;}.cls-21{fill:#97c9ae;}.cls-22{fill:#bc3921;}.cls-23{fill:#ef9867;}.cls-24{fill:#182e32;}.cls-25{fill:#e68f6d;}.cls-26{fill:#e4a77d;}.cls-27{fill:#0e272d;}.cls-28{fill:#ef491f;}.cls-29{fill:#fab48a;}.cls-30{fill:#91c8b2;}.cls-31{fill:#485a5f;}.cls-32{fill:#af281e;}.cls-33{fill:#a9c3bc;}.cls-34{fill:#1a2c2f;}.cls-35{fill:#45585d;}.cls-36{fill:#092329;}.cls-37{fill:#242729;}.cls-38{fill:#b33024;}.cls-39{fill:#c23a20;}.cls-40{fill:#facf6f;}.cls-41{fill:#92c6a2;}.cls-42{fill:#87c4ab;}.cls-43{fill:#89c2ac;}.cls-44{fill:#88c4ac;}.cls-45{fill:#89c4ad;}.cls-46{fill:#c5301b;}.cls-47{fill:#f8c4a1;}.cls-48{fill:#d1361b;}.cls-49{fill:#fab489;}.cls-50{fill:#818f93;}.cls-51{fill:#c97671;}.cls-52{fill:#bb2b1b;}.cls-53{fill:#bf2d1b;}.cls-54{fill:#b7291b;}.cls-55{fill:#c2c7c9;}.cls-56{fill:#e3a47b;}.cls-57{fill:#cd351b;}.cls-58{fill:#f8e3ad;}.cls-59{fill:#251f30;}.cls-60{fill:#0b242a;}.cls-61{fill:#f9b48a;}.cls-62{fill:#445f60;}.cls-63{fill:#f6f9fa;}.cls-64{fill:#c6321d;}.cls-65{fill:#b8463f;}.cls-66{fill:#f0471d;}.cls-67{fill:#f8e2aa;}.cls-68{fill:#f1f1f1;}.cls-69{fill:#f7c3a0;}.cls-70{fill:#262030;}.cls-71{fill:#f3e4d9;}.cls-72{fill:#fe9878;}.cls-73{fill:#547471;}.cls-74{fill:#bc2b1b;}.cls-75{fill:#f2eeee;}.cls-76{fill:#ac241b;}.cls-77{fill:#efa271;}.cls-78{fill:#12292e;}.cls-79{fill:#0e252a;}.cls-80{fill:#8ac5ad;}.cls-81{fill:#e3a47a;}.cls-82{fill:#e2a379;}.cls-83{fill:#2b3736;}.cls-84{fill:#203132;}.cls-85{fill:#10292f;}.cls-86{fill:#f19c6c;}.cls-87{fill:#91bfa3;}.cls-88{fill:#fbcf6f;}.cls-89{fill:#58bf8e;}.cls-90{fill:#0b2429;}</style></defs><g id="Home"><path class="cls-15" d="M14.48,334.1c2.26-2.89,1.93-6.52,2.56-9.8,2.83-14.66,5.37-29.37,7.99-44.07,3.2-17.97,6.31-35.95,9.58-53.9,1.72-9.47,3.69-18.9,5.55-28.34,1.24-6.29,2.49-12.59,3.74-18.88,2.98-1.22,5.73-3.01,8.96-3.65,2.67-.04,5.34-.09,7.96-.76,1.28-.33,2.67-.61,3.61.83.44.95.43,1.95.29,2.95-1.33,8.91-2.31,17.86-5.04,26.53-2.26,7.2-4.27,14.51-4.14,22.24.07,4.03,1.9,6.5,5.39,7.98,4.59,1.94,9.43,2.46,14.38,2.43,1.82,0,3.85-.48,5.24,1.36.24.51.4,1.04.42,1.61.83,29.92.84,59.85.53,89.77-.98,2.96-.3,6.04-.65,9.04-.3,1.55-1.21,2.29-2.8,2.1-1.99-1.48-3.93-2.25-5.52.54-1.53.88-3.2,1.13-4.93,1.13-.87-.03-1.7.18-2.54.35-1.22.07-2.4-.47-3.64-.24-1.92,1.12-4.16.17-6.13.96-10.08.24-19.85-1.61-29.49-4.35-.63-.18-1.3-.22-1.95-.32-3.52-1.15-7.02-2.35-9.35-5.51Z"/><path class="cls-15" d="M72.64,341.59c-.04-1.32.24-2.45,1.83-2.6,1.44-.14,2.67.11,2.84,1.9-.17.29-.52.44-.68.68-.09.15.27.01.35-.03,1.08-.56,2.48.24,3.44-.82.46-1.57.14-3.16.24-4.75,1.19-24.69.57-49.4.61-74.09.01-7.55-.5-15.11-.09-22.66.35-1.38,1.38-1.93,2.67-2.16,1.1-.2,2.2-.37,3.27-.67,5.34-1.53,7.06-3.78,7.26-9.34.3-8.72-1.18-17.22-4.61-25.13-2.62-6.05-3.85-12.24-4.61-18.65-1.01-8.41-1.99-16.81-3.2-25.19-.16-1.11-.26-2.22.14-3.3,3.31-3.31,7.79-4.23,11.95-5.8,5.19,7.8,9.62,15.92,11.63,25.21,2.31,10.67.68,20.7-4.51,30.19-1.15,2.11-1.84,4.16-1.83,6.61.08,14.37-.52,28.76.2,43.09.7,13.91.34,27.8.44,41.69.07,9.66-.76,19.31-.68,28.98.03,4.06-.9,8.12-1.21,12.19-.15,2-1.05,3.01-2.9,3.49-3.1.8-6.18,1.7-9.27,2.56-6.49,2.09-13.13,2.68-19.9,1.99-.91-.41-1.83-.82-2.74-1.23.58-.82,1.54-.21,2.24-.58.59-.2,1.22-.23,1.8-.45,1.8-.26,3.78.34,5.33-1.13Z"/><path class="cls-76" d="M47.37,56.64c-2.02-7.9-.82-15.71.82-23.47,1.01-4.78,2.42-9.47,4.26-14.02,2.95-7.3,6.05-7.81,11.19-1.54,2.14-3.61,5.33-3.25,8.62-2.2,3.76,1.2,7,3.34,10.09,5.74,5.52,4.31,9.87,9.66,13.47,15.58,5.15,8.47,4.22,15.62-2.82,22.59-1.37,1.35-2.07,2.21-1.11,4.34,1.29,2.85.28,5.91-.78,8.76-.98,2.62-2.32,5.07-4.09,7.23-1.68,2.05-3.53,3.96-5.38,6.03,1.63.76,3.22,1.52,3.59,3.47.95,1.07.22,2.11-.11,3.11-.42,1.27-.96,2.54-1.74,3.6-2.52,3.42-3.71,6.85-.79,10.64-.5,4.71-1.62,9.22-4.01,13.36-3.26,3.14-3.44,7.05-2.78,11.17-.03.75-.29,1.34-1.05,1.61-1.14.04-2.11-.08-1.53-1.64-.56.7-1.17,1.3-2.17,1.26-1.45-.06-2.33-.62-2.06-2.26.07-.44-.14.02.1-.31,2.88-4.03,1.04-7.57-1.12-11.08-.53-2.65-.24-5.23.55-7.78.69-1.85,1.7-3.56,2.56-5.34.54-1.13,1-2.22.12-3.39-2.47-4.77-1.79-9.32,1.25-13.52,1.41-1.94,2.31-3.63,1.05-6.04-.78-1.51-.35-3.27,0-4.93.84-3.89,2.78-7.29,4.84-10.59,1.56-2.49,2.83-5.05,3.45-7.92.45-2.11,1.48-3.52,3.66-4.31,2.57-.92,3.75-3.08,3.59-5.82-.16-2.81-1.96-4.18-4.7-3.52-1.38.33-2.62.32-3.85-.4-3.09-1.79-6.05-3.75-8.46-6.43-.24-.37.09.11-.15-.26-.16-.26-.3-.54-.52-.75,0,.26.25.42.28.68-.8,2.42-2.12.83-3,.24-2.15-1.43-3.47-3.65-4.91-5.75-1.72-2.5-2.09-2.46-4.03-.04-2.68,3.36-4.44,7.08-4.56,11.46-.5,1.74-.3,3.52-.31,5.28-.01,1.92-.06,3.73-2.06,4.87-1.41.81-1.31,2.21-.79,3.53.88,2.25,2.36,3.97,4.61,4.95,1.34,1.02,2.05,2.48,2.66,3.98.25.61.35,1.29-.63,1.41-4.85-2.44-8.39-5.94-9.44-11.5-.89-1.09-.65-2.57-1.1-3.71.09,1.11.74,2.21.11,3.43-.22.31-.48.38-.81.19Z"/><path class="cls-49" d="M77.99,119.57c2-4.32,3.29-8.85,4.02-13.54-1.47-8.82,4.22-15.35,7.27-22.73,2.79-1.81,5.61-3.58,8.79-4.65,5.14-1.73,6.68-.45,5.84,4.79-1.34,8.36-3.62,16.48-6.15,24.53-3.06,9.76-6.44,19.41-10.27,28.89-.41,1.02-.6,2.12-.9,3.18-.38,3.64-2.72,6.46-4.01,9.72-1.11,1.77-1.64,3.83-2.75,5.6-.62.81-1.27,1.58-2.48,1.25-2.22-1.91-5.02-3.17-6.57-5.85-.36-3.95.73-7.59,2-10.96-1.69,2.56-1.07,6.31-3.06,9.05-1.57.9-2.34-.48-3.26-1.23-1-.81-2.1-1.47-3.15-2.22-1.06-1.24-2.19-2.41-3.58-3.3-.35-.28-.68-.59-1-.91-1.3-1.5-3.04-2.49-4.5-3.81-.35-.31-.69-.64-1.02-.97-1.95-2.14-4.5-3.62-6.45-5.76-1.24-1.36-2.69-1.33-4.26-.66-1.84.78-3.71,1.49-5.64,2.01-1.3.35-2.61.64-3.79-.36-3.25-.77-2.68-3.64-3.06-5.85-.56-3.24.77-6.58-1.24-9.86-1.12-1.83,1.24-1.6,2.43-1.73,2.24-.48,3.33,1.9,5.35,2.16-.39-1.8-1.79-4.22.02-5.19,2.11-1.14,2.72,1.89,4.08,2.97.34.27.63.64.84,1.03,3.3,5.76,8.6,9.07,14.39,11.78.42.2.82.42,1.23.64,2.53,1.11,4.79,2.74,7.32,3.85,1.91.83,3.68,1.92,5.4,3.08,1.99,1.34,3.38,1.32,4.07-1.28.11-.42.51-.7.83-.99.16-.42.31-.85.47-1.27-.3-4.1,1.06-7.79,2.8-11.39Z"/><path class="cls-88" d="M54.6,136.93c1.68,1.22,3.67,2.09,4.7,4.06,1.37,9.83,2.68,19.66,3.66,28.24-.02-3.13-.85-7.5-1.45-11.86-.62-4.5-.91-9.05-1.83-13.51-.15-.73-.26-1.55.29-2.24,1.46.79,3.17,1.34,3.35,3.4,1.9,1.71,1.77,4.14,2.21,6.35.45,2.25.73,4.53,1.18,6.78.17,1.27.2,2.56.56,3.8-.16,4.21-1.31,8.27-1.91,12.42-.09.64-.38,1.29-1.23,1.32-.75-.87-1.58-.49-2.43-.19-3,1.05-6.08,1.09-9.19.71-1.65-.15-1.6-1.18-1.21-2.36.56-1.68,1.15-3.35,1.07-5.17-.05-1.11-.06-2.28-1.2-2.91-1.23-.68-2.38-.2-3.4.54-1.88,1.38-3.75,2.94-4.95,4.85-2.53,4.01-5.83,4-9.66,2.63-3.63-.06-6.91-1.54-10.33-2.47-2.14-.58-2.39-1.56-1.81-3.64,3.4-12.22,7.15-24.31,12.03-36.03,3.2.1,6.05-1.11,8.85-2.42,2.24-1.05,4.12-1.18,5.77,1.09,1.69,2.33,4.71,3.32,6.22,5.88-1.58,5.8.59,11.42.82,17.13.12,2.98,1.08,5.89.9,8.91.73,3.43,1.08,6.92,1.27,8.96-.54-2.06-.4-5.7-1.26-9.18-.35-6.69-1.54-13.29-2.2-19.95-.18-1.83-.63-3.75,1.17-5.13Z"/><path class="cls-49" d="M72.08,37.86c2.37,1.83,4.7,3.71,7.11,5.47,1.72,1.26,3.4,2.09,5.79,1.01,2.07-.93,4.59,1.16,5.02,3.59.66,3.71-1.37,7.09-5.06,8.16-.96.28-1.63.53-1.78,1.6-.73,5.25-3.95,9.34-6.38,13.8-1.55,2.84-2.72,5.83-2.78,9.15-.02,1.15.17,2.32.85,3.17,1.14,1.4.93,2.25-.32,3.56-4.05,4.27-5.13,9.2-2.6,14.71-2.45,2.27-5.56,1.91-8.51,2.16-2.85-1.2-5.83-1.88-8.9-2.21-1.22-.63-1.38-1.73-1.02-2.84,1.05-3.26,2.38-6.41,4.02-9.42.23-.41.67-.54,1.14-.45,2.23.18,3.89,3.41,5.83,2.2,1.82-1.14.61-4.15,1.11-6.31.6-2.58.65-5.27,1-7.91.61-4.65-4.02-5.27-6.06-7.89-.43-.56-1.28-.79-1.93-1.17.53-2.12-1.74-3.05-2.05-4.82-2.84-1.94-3.57-5.19-2.99-7.91.84-3.93.22-7.85.93-11.7-.36-5.62,2.83-9.61,6.16-13.56,1.2-1.42,1.87-.94,2.66.41,1.7,2.89,3.65,5.6,6.33,7.67.38.3,1.56,1.89,1.47-.38.29-.32.6-.36.95-.1Z"/><path class="cls-88" d="M55.87,127.56c-6.09-2.15-11.12-5.64-14.62-11.22-1.15-1.83-2.68-3.42-4.2-5.33-1.34,2.78.5,4.67,1.2,7.01-2.96-.57-4.84-2.53-7.07-3.81-.49-1.79-.86-3.63-1.98-5.18-.56-.95-.98-1.92-.72-3.06-.03-.4-.05-.8-.08-1.2.88-2.13,2.78-1.35,4.34-1.53,1.41-.04,2.83.14,4.22-.25.36-.08.71-.11,1.08-.11.37,0,.73.03,1.09.1,5.85.33,11.75.14,17.51,1.59,2.9.73,5.82,1.39,8.57,2.61,1.54.86,3.42,1.25,4.26,3.08-.44,2.87-1.22,5.72-.72,8.67-.41,4.84-1.92,9.3-4.73,13.29-2.47-1.32-4.94-2.65-7.41-3.97.34-4.5,2.46-8.59,3.08-13.02.76-1.29.91-2.73,1.15-3.69-.04.87-.65,2.08-.92,3.36-1.49,4.18-1.72,8.78-4.06,12.69Z"/><path class="cls-89" d="M33.17,104.01c-1.56.42-3.3-.31-4.75.75-6.24-7.46-12.76-14.73-16.61-24.08,4.1,1.5,7.44,5.16,14.84,16.05.21.15.43.44.68.13.19-.24.07-.54-.07-.8-2.66-6.3-5.98-12.34-8.27-19.72,4.68,3.86,6.62,8.56,8.91,13.03,1.96,1.23,2.15,3.53,3.2,5.31.82,1.97,1.64,3.94,2.37,5.95.34,1.17.75,2.34-.3,3.39Z"/><path class="cls-29" d="M33.17,173.79c1.67,0,3.3-1.26,5.04.25.78.68,1.6-.47,2.05-1.19,1.61-2.6,4.05-4.41,6.11-6.59,1.37-1.45,3.07-2.43,5.07-1.67,2.3.88,1.76,3.05,1.82,4.9.05,1.61-.52,3.07-1.17,4.47-.44.94-.53,1.64.42,2.24-2.86,1-5.24,3.43-8.62,2.91-4.32-.26-7.92-2-10.72-5.32Z"/><path class="cls-61" d="M43.28,90.67c2.27-8.58,2.9-8.86,10.46-4.45,1.03.6,2.29.88,3.02,1.96.77,3.22-1.08,5.36-3.03,7.47-2.12.25-2.34-1.98-3.81-2.97-.41,2.3,1.82,3.18,2.26,4.87-.05,1.12-.66,1.81-1.68,2.19-2.96-1.22-6-1.29-9.09-.66-1-1.33.07-2.27.71-3.2,1.17-1.7,2.39-3.37,3.46-5.17-.89-.45-1.58.61-2.3-.03Z"/><path class="cls-60" d="M66.02,344.99c6.6-.99,13.24-1.53,19.9-1.99-1.25,2.27-3.22,3.88-5.24,5.37-5.99,4.42-10.98,3.24-14.66-3.38Z"/><path class="cls-60" d="M81.8,149.79c1.53-3.28,2.66-6.76,4.8-9.75,2.49,2.98,4.97,5.95,7.46,8.93-3.31,2.82-7.55,3.68-11.39,5.37-2.2-1.16-1.03-2.95-.87-4.56Z"/><path class="cls-27" d="M14.48,334.1c3.12,1.84,6.23,3.68,9.35,5.51-7.71.21-15.42,1.28-23.83-.01,4.79-3.33,9.83-3.91,14.48-5.5Z"/><path class="cls-17" d="M89.28,83.3c-.64,4.36-3.29,7.94-4.71,11.99-.91,2.59-3.17,4.87-1.54,8.06.29.57-.65,1.77-1.02,2.68-.16-.14-.33-.28-.48-.42-2.93-2.7-2.46-5.1.02-8.06,1.92-2.31,2.99-5.36,3.68-8.4.92-2.25,1.11-5.01,4.06-5.85Z"/><path class="cls-63" d="M32.68,100.62c-.8-1.94-1.59-3.88-2.39-5.82.58-1.82,1.93-1.06,2.96-.76,1.75.51,3.67.85,4.63,2.74.44.86.77,1.74.68,2.73.55,1.41.29,2.71-.5,3.95-.32.07-.64.14-.96.21-2.06-.16-3.26-1.59-4.42-3.05Z"/><path class="cls-14" d="M38.06,103.46c-.18-1.36-.44-2.73.5-3.95,1.64-2.91,2.24-6.37,4.71-8.83.44-.32.86-.67,1.32-.97.69-.45,1.43-1.43,2.25-.52.58.65-.23,1.41-.57,2.05-1.42,2.71-3.86,4.77-4.92,7.72-.26,1.92-1.47,3.24-2.85,4.44-.15.02-.29.04-.44.07Z"/><path class="cls-16" d="M36.65,82.74c.84.98.81,2.17.12,3.02-.66.8-1.62-.09-2.44-.28-2.75-.61-5.07-2.09-7.3-3.72-.61-.44-1.46-.87-1.04-1.81.39-.87,1.3-.62,2.05-.6,2.42.07,3.85,1.96,5.71,3.07.67.4.84,2.19,2.22.99.2-.25.23-.68.68-.67Z"/><path class="cls-34" d="M50.49,99.41c.48-.64.96-1.29,1.43-1.93-.12-1.02.09-1.9,1.03-2.47,2.65-1.5,2.67-4.47,3.8-6.82.96-.15,1.59.25,1.91,1.15-1.49,3.41-2.98,6.83-4.48,10.24-.34.78-.42,1.49.42,2.01-.04,1.19-1,1.64-1.77,1.3-1.4-.61-2.57-1.65-2.35-3.49Z"/><path class="cls-44" d="M35.78,80.78c1.32-4.32,2-8.96,6.23-11.81-.51,4.72-2.41,8.85-5.3,12.57-.59.09-.24-.96-.92-.76Z"/><path class="cls-1" d="M37.88,96.77c-2.51-.73-4.66-2.86-7.59-1.97-.8-1.81-1.6-3.62-2.39-5.43,4.04.27,6.26,3.68,9.42,5.45.36-.41.72-.41,1.09-.03.09.73.21,1.47-.53,1.97Z"/><path class="cls-43" d="M46.06,78.71c-2.05,4.47-5.23,7.45-7.88,10.8-.37.47-.84.83-1.33.19-.35-.46-.52-1.24.01-1.49,2.87-1.36,2.8-4.8,4.89-6.73,1.13-1.05,1.99-2.36,4.3-2.77Z"/><path class="cls-19" d="M35.75,76.33c-.26.58-.73.79-1.31.53-2.5-1.13-5.26-1.75-7.39-3.63-.49-.43-1.02-.95-.77-1.68.2-.59.78-.7,1.36-.75.93-.07,7.84,4.34,8.08,5.18.03.1.02.21.04.35Z"/><path class="cls-45" d="M33.81,70.71c.62-3.3,1.63-6.46,3.28-9.4.27-.48.81-.83,1.4-.52.63.32.45.89.28,1.43-.95,3.06-2.24,5.95-4.23,8.49-.25.39-.49.39-.73-.01Z"/><path class="cls-42" d="M30.43,66.79c-1.62,0-2.91-.9-4.24-1.64-.73-.41-1.83-.97-1.4-1.92.51-1.1,1.75-.65,2.62-.34,1.44.52,2.75,1.33,3.78,2.53.52.25.93.69.64,1.22-.28.5-.89.43-1.39.15Z"/><path class="cls-30" d="M32.05,62.24c-.6-3.11,1.22-5.4,2.91-8.73.53,4.05-1.38,6.31-2.91,8.73Z"/><path class="cls-80" d="M30.27,58.26c-1.95.24-5-1.17-5.43-2.48-.09-.27-.05-.83.03-.85.51-.14,1.11-.33,1.57-.18,1.76.58,2.72,2.1,3.83,3.51Z"/><path class="cls-21" d="M28.49,105.96c.85.88.8,1.97.72,3.06-.57-.34-1.18-.62-1.69-1.03-.65-.52-1.86-.97-1.4-1.94.49-1.03,1.55-.2,2.37-.09Z"/><path class="cls-33" d="M30.43,66.79c1-.04,1.25-.5.76-1.37,4.27-3.24-.45,3.84,2.73,1.97-1.47.46-2.51.04-3.49-.59Z"/><path class="cls-55" d="M55.27,344.29c1.89-1.19,4.15-.48,6.13-1.2.15.15.18.28.1.38-.07.09-.14.13-.21.13-1.86,1.53-4.02.34-6.01.69Z"/><path class="cls-51" d="M47.85,56.67v-3.88c.77,1.26,1.54,2.47,1.33,3.95l-.29-.07h-.3c-.25.23-.5.23-.75,0Z"/><path class="cls-8" d="M61.28,343.61c.05-.17.09-.34.12-.51,1.28-.06,2.56-.12,3.84-.19.69-.29.79.03.64.62-.87.08-1.74.16-2.61.23-.66-.05-1.33-.1-1.99-.15Z"/><path class="cls-50" d="M38.41,94.8c-.36,0-.73.02-1.09.02.1-.64-.64-1.74.42-1.8.94-.06.71,1.06.68,1.78Z"/><path class="cls-4" d="M27.25,96.06c.66.71,1.24,1.45,1.04,2.57-.98-.33-1.36-1.08-1.65-1.9.2-.22.41-.44.61-.67Z"/><path class="cls-65" d="M47.85,56.67c.25,0,.5,0,.75,0v2.34c-1.08-.63-1.38-1.39-1.22-2.37.16,0,.32,0,.47.03Z"/><path class="cls-73" d="M33.81,70.71c.24,0,.49,0,.73.01.1.79.19,1.59.31,2.54-1.47-.6-.87-1.71-1.04-2.55Z"/><path class="cls-62" d="M35.78,80.78c.98-.56.63.5.92.76-.02.4-.04.8-.06,1.2-.23.22-.46.45-.68.67-.06-.88-.12-1.75-.19-2.63Z"/><path class="cls-66" d="M81.8,149.79c.35,1.51.05,3.14.87,4.56,1.24,10.02,2.57,20.02,3.67,30.06.67,6.08,2.1,11.82,4.52,17.51,3.27,7.69,4.74,15.93,4.59,24.36-.14,7.85-2.5,10.51-10.3,11.6-1.08.15-2.24-.03-3.21.66-.52.6-1.08.61-1.68.13-5.55-.11-11.12.17-16.58-1.33-7.6-2.09-9.43-4.45-9.12-12.33.24-6.39,1.58-12.65,3.66-18.61,3.48-9.99,4.25-20.43,5.93-30.72.81-4.69,1.61-9.38,2.41-14.06-.46-1.21.33-2.39.09-3.6.62-3.11.39-6.46,2.6-9.12,1.2-3.39,1.54-7.1,3.89-10.46-.65,4.4-1.24,8.42-1.83,12.44.62,2.43-.27,4.75-.47,7.12-1.58,10.76-3.77,21.42-4.94,32.24-.52,4.87-.03,5.53,4.84,5.17,2.87-.21,5.71-.8,8.62-.57.38.02.75.06,1.12.11.37.04.72.15,1.06.31.32.16.54.42.66.76-3.1,1.83-6.62.89-9.92,1.4-2.38.36-4.82.48-7.24.71,5.16-.7,10.38-.76,15.56-1.28.78-.08,1.64-.02,2.28-.38.71-.4-.5-.4-.37-.83.93-1.98.98-3.97.74-6.14-1.21-10.77-2.48-21.53-3.77-32.29-.18-.71-.28-1.43-.19-2.16.81-1.76,1.25-3.7,2.53-5.24Z"/><path class="cls-85" d="M80.24,238.68c.56-.04,1.12-.09,1.68-.13.04,32.78.53,65.56-.7,98.33-1.74-1.86-.62-4.04-.68-6.09-.1-30.7-.2-61.41-.3-92.11Z"/><path class="cls-10" d="M80.54,330.78c.69,1.98-.39,4.16.68,6.09.05,1.55.51,3.14-.57,4.55-.62-.46-.09-1.27-.55-1.78-.03-2.96-.15-5.93.43-8.87Z"/><path class="cls-12" d="M80.11,339.65c.63.45.52,1.14.55,1.78-1.82.3-3.64.59-5.8.94.67-1.21,1.78-.99,2.47-1.48,1.07-.11,2.47.56,2.79-1.24Z"/><path class="cls-35" d="M72.64,341.59c-1.3,2.31-3.56.99-5.35,1.42-.16-.16-.2-.3-.12-.43.07-.12.14-.18.21-.18,1.78-.11,3.58-.09,5.26-.81Z"/><path class="cls-11" d="M67.38,342.4c-.01.2-.04.41-.09.6-.31.59-.84.62-1.41.52-.21-.21-.43-.41-.64-.62.61-.62,1.34-.72,2.14-.51Z"/><path class="cls-90" d="M64.04,132.21c1.58-4.43,3.16-8.86,4.73-13.29.24.49.35,1.17.74,1.44,4.1,2.77,2.12,5.87.5,8.9-1.06,1.99-.15,3.02,1.55,2.18,1.69-.83,2.08.82,3.16.8q-1.08,5.32-5.81,2.67c-1.62-.91-3.25-1.8-4.87-2.7Z"/><path class="cls-79" d="M69.49,110.25c-1.42-.72-2.83-1.44-4.25-2.17-.92-1.43-2.53-2.54-2.07-4.59,2.93-.47,5.85-.94,8.78-1.41,1.25.48,1.32,1.2.67,2.32-1.11,1.91-2.09,3.9-3.12,5.85Z"/><path class="cls-77" d="M54.52,43.82c0,4.14.04,8.28,0,12.41-.03,2.62.99,4.91,2.06,7.2-3.37-.72-6.56-5.09-5.99-8.28.09-.51.39-1.35.67-1.39,3.99-.5,2.4-3.57,2.7-5.74.2-1.4-.23-2.88.56-4.2Z"/><path class="cls-37" d="M77.99,119.57c-.26,3.96-1.95,7.57-2.8,11.39-1.15-4.31-.98-8.29,2.8-11.39Z"/><path class="cls-25" d="M72.08,37.86c-.31.03-.63.06-.95.1-.8-.54-1.51-1.14-1.63-2.8,1.07,1.13,1.83,1.92,2.58,2.71Z"/><path class="cls-68" d="M80.11,195.59c-4.43.31-8.88.57-13.3.97-1.93.18-2.56-.41-2.34-2.38.72-6.39,1.26-12.78,2.78-19.09,1.11-4.62,1.37-9.45,2.05-14.18.16-1.09.49-2.16.74-3.24,2.19-1.71,4.62-2.3,7.32-1.51,1.05.33,1.21-.85,1.9-1.13.26.38.52.77.78,1.15.47,4.72.56,9.46.92,14.19-.04,7.02.01,14.05-.03,21.07,0,1.42.27,2.93-.82,4.15Z"/><path class="cls-9" d="M69.24,148.91c-.68,3.13-1.35,6.25-2.03,9.38-.4.45-.82.45-1.26.06-.88-4.44-1.76-8.89-2.63-13.33,2.71.18,3.82,2.78,5.92,3.89Z"/><path class="cls-67" d="M59.97,141.62c.99,7.79,1.92,15.58,3.01,23.35.25,1.78.36,3.5,0,5.28-1.5-9.72-3.33-19.4-3.67-29.27.22.21.44.42.67.63Z"/><path class="cls-78" d="M77.36,156.16c-2.44.5-4.88,1-7.32,1.51.12-2.32.38-4.61,1.25-6.79,2.04,1.74,4.5,3,6.07,5.28Z"/><path class="cls-58" d="M55.3,162.34c-.78-6.63-1.44-13.28-2.4-19.89-.33-2.3-.33-4.33,1.01-6.25.23.24.46.49.69.74-1.82,4.25-.06,8.47.22,12.68.28,4.25,1.2,8.46,1.14,12.75-.23.23-.45.21-.66-.02Z"/><path class="cls-7" d="M59.94,114.87c-.41,4.63-2.01,8.96-3.31,13.37-.25-.22-.5-.45-.75-.67,1.54-4.17,2.02-8.68,4.07-12.69h0Z"/><path class="cls-20" d="M55.3,162.34c.22.01.44.02.66.02.94,3.5,1.33,7.04.88,10.68-.52-3.57-1.03-7.14-1.55-10.7Z"/><path class="cls-71" d="M65.95,158.35c.42-.02.84-.04,1.26-.06-.22,1.11-.44,2.22-.67,3.33-.92-.96-.52-2.16-.59-3.27Z"/><path class="cls-28" d="M63.17,103.49c.77,1.5,1.92,2.82,2.07,4.59-7.51-2.77-15.28-4.06-23.28-4.09-1.16,0-2.45.42-3.46-.6.17-1.98,1.72-3.08,2.85-4.44,3.15-1.84,6.21-1.84,9.15.46,1.33.81,1.16,4.46,4.12,2.18,3.1-.51,5.98.01,8.55,1.9Z"/><path class="cls-86" d="M65.05,59.16c-1.43-.95-2.74-2.16-3.45-4.07,5.61.5,1.61-4.1,3.32-5.52,1.69,2.99.39,6.28.13,9.58Z"/><path class="cls-32" d="M66.08,43.89c.76-1.99,1.97-2.78,3.64-2.73,1.56.05,2.22,1.13,2.62,2.73h-6.26Z"/><path class="cls-38" d="M58.9,46.9c.02-1.7.13-3.29,2.08-3.55.65-.09,1.59.45,1.46.99-.41,1.7-2.31,1.7-3.55,2.56Z"/><path class="cls-86" d="M84.02,47.98c.07,1.02-1.09,2.02.02,3.07.53.5.71,1.17.04,1.69-.47.37-.75-.16-1.05-.43-.46-.42-1.74-.26-1.1-1.49.55-1.05.81-2.31,2.06-2.85l.02.02Z"/><path class="cls-23" d="M73,60.06c-1.67,2.68-3.37,3.49-6.12,3.2,2.03-1.06,3.67-1.92,6.12-3.2Z"/><path class="cls-83" d="M70,48.01c-.03.67-.11,1.5-.94,1.42-.75-.08-.82-.95-.79-1.59.03-.61.08-1.5.93-1.41.79.08.78.92.79,1.59Z"/><path class="cls-84" d="M63.09,49.38c-.12.56-.18,1.31-.78,1.37-.86.07-.95-.74-.97-1.4-.02-.57.06-1.26.72-1.33.92-.1.91.74,1.03,1.36Z"/><path class="cls-86" d="M84,47.96c.22-1.66,1.13-2.25,2.86-1.76-1.01.64-1.92,1.21-2.83,1.78,0,0-.02-.02-.02-.02Z"/><path class="cls-41" d="M32.68,100.62c1.71.68,3.07,1.86,4.42,3.05-1.26.74-2.61.37-3.93.35.23-1.19-.21-2.28-.49-3.4Z"/><path class="cls-13" d="M59.95,114.87c-.15-1.46.26-2.79,1.08-4.35.43,1.85-.17,3.14-1.08,4.35,0,0,0,0,0,0Z"/><path class="cls-87" d="M52.96,95c-.56.73.08,1.97-1.03,2.47-1.47-.85-2.54-2.06-3.11-3.67-.33-.92-.13-1.94.62-2.36.98-.56,1.44.6,2,1.18.66.68.43,1.97,1.53,2.39Z"/><path class="cls-75" d="M80.1,170.6c-.02-4.81-.04-9.61-.05-14.42,1.09,8.47,2.19,16.94,3.26,25.41.47,3.75.79,7.52,1.37,11.25.3,1.91-.58,2.58-2.16,2.89-.16.26-.33.27-.5.01-.18-.14-.38-.23-.6-.27-1.53-3.31-.4-6.82-.75-10.22,0-3.83.02-7.67-.01-11.5,0-1.07.23-2.21-.55-3.16Z"/><path class="cls-64" d="M82.02,195.75c.17-.13.33-.13.5-.01,1.48.1,2.95.19,4.43.29,0,.27,0,.55-.01.82-8.18.66-16.36,1.32-24.54,1.98,1.95-1.17,4.06-1.59,6.27-1.7,3.97-.2,7.94-.44,11.9-.72.49-.04.96-.43,1.44-.66Z"/><path class="cls-31" d="M80.1,170.6c1.3-.08,1.02.92,1.03,1.61.05,4.32.06,8.63.09,12.95-.67,3.43.22,6.93-.47,10.36l-.31.09s-.33-.02-.33-.02c0-8.33,0-16.66,0-24.98Z"/><path class="cls-24" d="M80.75,195.52c.16-3.45-.5-6.94.47-10.36.06,3.44.13,6.88.19,10.32-.22.01-.44.02-.66.04Z"/><path class="cls-40" d="M220.73,356c-2.56-1.02-5.05-2.28-7.69-3.01-2.9-.8-4.03-2.38-3.41-5.27,1.85-2.26,4.03-3.25,6.84-1.75,4.62,3.5,9.83,6.16,14.19,10.04h-9.92Z"/><path class="cls-66" d="M148.37,88.71c3.16.91,4.26,2.81,2.78,5.9-.71,1.49-.17,2.38,1.22,3.09,1.58.8,2.95,1.9,4.13,3.25,2.16,2.49,2.86,5.3.91,8.07-3.79,5.37-3.45,10.27.46,15.5,2.07,2.78,3.26,6.22,4.84,9.36.46.83.66,1.71.55,2.68.55-.88-.58-1.75.04-2.6,5.4-12.63,10.8-25.27,16.21-37.9.6-1.4,1.25-2.79,1.94-4.15,2.7-5.25,5.92-6.04,10.81-2.57,2.09,1.48,4.01,3.18,6.23,4.97-.2-2.94-.36-5.57-.56-8.2-.15-2.01.29-3.14,2.72-2.5,1.91.5,3.93.59,5.9.86,2.76-.96,5.16-.42,7.14,1.77,2.14.65,4.28,1.29,6.41,1.97,2.58.82,2.97,2.51,1.58,4.62-1.08,1.65-2.38,3.15-3.82,5.03,4.98-.63,9.57-1.51,14.25-1.49,4.71.02,5.36.47,5.58,5.18.52,10.96.84,21.93,1.32,32.9.45,10.16,2.91,20.06,4.04,30.14.41,3.63.81,7.26.66,10.93-.1,2.46-1.18,3.82-3.63,4.44-2.26.57-4.47,1.47-6.58,2.49-2.41,1.16-3.47,3.04-2.37,5.82.51,1.3.81,2.72.94,4.12.21,2.17.34,4.37-2.84,4.6-2.69.2-.72,4.04-3.28,4.46-1.59.26-2.59-.95-3.84-1.54-3.48-.02-5.4-3.04-8.24-4.29-6.28-2.08-12.91-2.15-19.33-3.39-4.83-.93-9.71-1.58-14.48-2.86-1.65-.44-3.06-1.15-4.02-2.6-1.17-.57-2.37-1.07-3.49-1.72-1.07-.62-1.52-1.62-.6-2.64,4.18-4.64,4.24-10.62,5.21-16.23,1.6-9.26,2.42-18.63,3.31-28.94-3.15,4.31-5.71,7.9-8.38,11.4-1.28,1.68-2.74,3.24-4.2,4.78-4.3,4.52-5.65,4.9-10.63.97-8.25-6.51-14.03-14.6-13.84-25.75.09-5.55-1.1-10.68-3.94-15.54-3.35-5.74-4.2-11.74-.39-17.72,1.35-2.13.91-4.6,1.22-6.89.35-2.53,1.37-2.54,3.18-1.7,2.03-.39,3.71.09,4.86,1.92Z"/><path class="cls-36" d="M176.05,186.76c11.05,3.25,22.44,4.64,33.79,6.22,1.95.27,4.03.21,5.35,2.1,1,1.87-.21,3.37-.87,4.95-.89,2.16-1.89,4.28-2.68,6.48-.31.86-.7,1.98.2,2.61,1.11.78,1.57-.5,2.19-1.08.91-.85,1.56-2.14,3.14-1.77-.6,26.32-1.25,52.64-1.76,78.96-.19,10.14-.9,20.29.29,30.42.12,1.05.25,2.13.59,3.12,1.39,4.07,3.16,8,.6,12.39-.86,1.46-.02,3.48.81,5.08q2.79,5.4-1.25,9.73c-2.28.58-4.56,1.17-6.84,1.75-.32-2.22-.65-4.43-.95-6.66-.29-2.2-.68-4.35.84-6.4.76-1.04.47-2.51.34-3.81-1.85-19.03-4.73-37.93-7.2-56.88-2.99-22.93-5.99-45.86-8.98-68.79-.96-.61-.85.25-.91.71-.16,1.38.22,2.8-.27,4.17-1.08,26.43-2.23,52.85-3.23,79.28-.52,13.8-.83,27.62-1.12,41.43-.08,3.79,1.05,7.55-1.61,11.15-1.39,1.88.12,4.6.09,6.94-2.65.2-4.19-1.08-4.78-3.61.19-2.04-.32-3.97-.8-5.92-.6-2.42-2.06-4.94.79-7.06.36-.27.2-1.33.17-2.02-1.4-32.99-2.82-65.97-4.2-98.96-.62-14.84-1.16-29.69-1.74-44.54Z"/><path class="cls-47" d="M213.69,86.23c-2.38-.59-4.76-1.18-7.14-1.77.37-5.56-1.65-10.12-5.64-13.94-5.36-5.13-8.07-11.2-6.52-18.8.4-1.95.37-3.56-2.25-4.71-2.39-1.04-3.13-4.09-2.98-6.76.14-2.51,2.06-3.26,4.73-1.87,1.51.78,2.34,1.4,2.81-1.01,1.54-7.98,3.29-15.93,4.96-23.88,1.04-1.32,2.49-1.22,3.9-.99,6.4,1.03,12.82,1.97,19.2,3.12,4.18.75,5.12,2.19,4.34,6.44-1.09,5.92-2.95,11.64-4.81,17.35-.19.58-.39,1.11-.13,1.7-.27.77-.54,1.53-.88,2.47.52-.03.87.04,1.14-.08,2.66-1.2,5.48-1.9,7.1,1.23,1.62,3.13-.98,5.02-3.07,6.69-1.37,1.09-3.1,2.12-4.88,1.71-3.11-.72-3.36,1.09-3.86,3.36-2.21,9.87-4.33,19.76-5.99,29.74Z"/><path class="cls-88" d="M224.13,41.12c-.75-3.22.77-6.14,1.27-9.19.67-4.04,1.59-8.04,2.58-12.01.43-1.74-.25-2.49-1.75-2.72-8.2-1.26-16.4-2.47-24.6-3.7-2.88-1.35-6.39-1.18-9.24-3.71,1.76-.9,3.46-.93,4.72-.48,2.45.88,2.48-1.4,3.41-2.29.76-.73-.57-.91-.99-1.16-1.85-1.11-4.01-1.72-6.16-3.72,4.66-.52,8.1,1.79,11.94,2-.3-1.68-3.41-2.09-2.33-3.49,1.2-1.54,3.3.09,4.78.8,8.55,4.05,16.63,8.92,24.45,14.25,1.64,1.12,1.63,2.18.91,3.85-3.07,7.16-6.01,14.38-8.99,21.57Z"/><path class="cls-47" d="M148.37,88.71c-1.62-.64-3.24-1.28-4.86-1.92,1.19-1.55.92-2.75-.77-3.78-3.17-1.93-3.73-4.89-3.21-8.3.66-4.3,1.22-8.62,1.87-12.93.69-4.54,3.7-7.5,7.11-10.09,1.37-1.04,1.79-.51,2.32,2.89,1.16.37,1.66-1.66,2.72-.91,1.15.8.57,2.19.43,3.28-.41,3.37-.97,6.72-1.45,9.92.85.62,1.07.08,1.39-.17.73-.58,1.58-1.5,2.46-.92,1.15.75.34,1.92,0,2.87-.88,2.45-1.57,4.92-1.83,7.53-.35,3.43-1.58,6.37-4.89,8.07-1.92.99-1.09,2.9-1.3,4.45Z"/><path class="cls-40" d="M181.83,345.25c1.59,1.2,3.19,2.4,4.78,3.61.57,2.55-.33,3.46-3.05,3.68-9.25.76-18.48,1.84-27.95,2.05,8.74-3.11,17.47-6.23,26.21-9.34Z"/><path class="cls-69" d="M217.18,206.25c-1.44.9-1.94,2.6-3.11,3.71-.73.69-1.04,2.78-2.35,1.69-1.12-.93-2.88-2.19-1.87-4.4,1.84-4.03,3.56-8.11,5.33-12.17,2.31,1.61,4.62,3.21,6.93,4.82-2.26,1.64-3.56,4.02-4.94,6.35Z"/><path class="cls-22" d="M163.29,133.95c1.63,2.07,1.56,3.78-1.29,5.01.25-1.76.48-3.42.71-5.09.19.02.39.05.58.08Z"/><path class="cls-6" d="M192.5,210.05c-.03-1.81-.07-3.63-.07-5.44,0-.56.16-1.39.81-1.2.76.22.6,1.09.43,1.77-1.09,1.46-.36,3.35-1.18,4.88Z"/><path class="cls-54" d="M225.75,144.01c.04,7.43-.17,14.85-.72,22.27-.2,2.75-1.3,4.72-3.61,6.07-1.32.77-2.78,1.35-3.57,2.8-.63.16-.98.05-.69-.7.37-.45.65-1.16,1.11-1.32,5.72-1.94,5.66-6.9,5.91-11.53.41-7.5.57-15.01.84-22.52,1.95,1.39.89,3.23.73,4.94Z"/><path class="cls-53" d="M180.63,133.67c-.31-6.73.54-13.3,1.48-19.86.76,6.73-.03,13.35-1.48,19.86Z"/><path class="cls-48" d="M225.75,144.01c-.31-1.64.48-3.44-.73-4.94-.41-4.24,1.22-8.3,1-12.53,0,5.84,1.21,11.68-.27,17.47Z"/><path class="cls-74" d="M214.4,97.61c-4.28.1-8.63.66-12.48-1.95,4.16.65,8.32,1.3,12.48,1.95Z"/><path class="cls-46" d="M217.16,174.45c.23.23.46.47.69.7.75,4.5-1.48,7.53-4.91,9.97-.21-.16-.28-.31-.21-.47.07-.16.14-.23.21-.23,3.2-2.56,3.45-6.37,4.21-9.96Z"/><path class="cls-39" d="M219.74,187.28c3.45,1.55,5.45,4.41,6.64,7.96-2.21-2.65-4.42-5.31-6.64-7.96Z"/><path class="cls-53" d="M219.34,182.73c2.49.82,4.72,1.99,6.62,5.16-3.04-1.63-5.01-3.16-6.62-5.16Z"/><path class="cls-18" d="M142.22,93.93c2.49.08,4.89.44,7.51,2.56-3.2-.35-5.48-1.07-7.51-2.56Z"/><path class="cls-52" d="M212.94,187.26c2.85.81,4.8,2.8,6.36,5.29-2.1-1.79-4.85-2.75-6.34-5.32l-.02.03Z"/><path class="cls-57" d="M212.94,184.41c0,.23,0,.47,0,.7,0,.72,0,1.43,0,2.15,0,0,.02-.03.02-.03-.98.32-1.17,1.34-1.95,2.21-.35-2.24,1.28-3.45,1.93-5.03Z"/><path class="cls-72" d="M211.42,32.03c-1.92,2.51.55,4.4,1.1,6.46.73,2.71,1.26,3.99-2.56,4.37-3.74.37-7.55-.07-11.25.93-1.58.42-2.06-.42-1.71-2.03.81-3.75,2.25-7.24,4.31-10.42,2.19-3.38,3.55-3.52,7.23-1.42.33.19.87,0,1.32,0,1.32.11,1.04,1.41,1.56,2.11Z"/><path class="cls-26" d="M201.6,48.43c5.36,1.08,9.64.86,13.49-2.05-3.12,4.47-8.4,5.42-13.49,2.05Z"/><path class="cls-5" d="M216.67,22.98c1.14-1.65,2.41-1.82,3.7-1.56,1.62.33,2.6,1.76,2.14,3.09-.42,1.22-1.8.14-2.71-.17-.98-.33-1.92-.83-3.12-1.36Z"/><path class="cls-2" d="M207.69,22.64c1.16-1.54,1.75-3.79,4.19-3.07.86.25,1.28,1.33.88,2.05-1.19,2.15-3.36.66-5.07,1.02Z"/><path class="cls-56" d="M228.59,45.67c-2.3,1.22-4.98,1.13-5.66,4.04-.18.75-1.2.49-1.82.07-.94-.63-.4-1.25.18-1.63,2.1-1.38,4.02-3.34,7.3-2.49Z"/><path class="cls-70" d="M216.37,29.5c.84-.04.89.6.91,1.15.04,1.05.11,2.26-1.08,2.69-.88.32-1.13-.51-1.15-1.26-.04-1.1.16-2.09,1.32-2.59Z"/><path class="cls-59" d="M211.42,32.03c-1.75.2-1.32-1.2-1.56-2.11.38-.83.81-2.21,1.85-1.4,1.24.96.24,2.35-.29,3.51Z"/><path class="cls-82" d="M192.29,40.32q2.79,1.51,2.67,5.46c-.77-2.6-1.33-4.24-2.67-5.46Z"/><path class="cls-81" d="M149.52,62.34c.86,2.45-.38,4.81,1.11,6.81-8.26,1.28-9.35.12-7.51-8.1.68,1.82.21,3.31-.11,4.81-.17.8-.34,1.8.81,1.96.88.12,1.12-.76,1.26-1.43.51-2.39.96-4.79,1.5-7.55,1.06,2.54-.37,4.59-.22,6.7.06.88-.3,2.13,1.01,2.27,1.12.11,1.01-1.08,1.22-1.82.31-1.1.57-2.21.93-3.63Z"/><path class="cls-3" d="M145.57,74.96c2.23-1.92,4.82-1.98,6.24-4.94-.14,4.84-3.05,4.44-6.24,4.94Z"/></g></svg>